<?xml version="1.0" encoding="utf-8"?>
<svg viewBox="177.212 126.907 164.005 201.002" xmlns="http://www.w3.org/2000/svg">
  <defs>
    <linearGradient x1="0%" y1="0%" x2="0%" y2="100%" id="mx-gradient-007fff-1-0066cc-1-s-0">
      <stop offset="0" style="stop-color: rgb(0, 127, 255); stop-opacity: 1;"/>
      <stop offset="1" style="stop-color: rgb(0, 102, 204); stop-opacity: 1;"/>
    </linearGradient>
    <linearGradient x1="0%" y1="0%" x2="100%" y2="0%" id="mx-gradient-ff00ff-1-000000-1-e-0">
      <stop offset="0" style="stop-color: rgb(255, 0, 255); stop-opacity: 1;"/>
      <stop offset="1" style="stop-color: rgb(0, 0, 0); stop-opacity: 1;"/>
    </linearGradient>
    <linearGradient x1="0%" y1="0%" x2="100%" y2="0%" id="mx-gradient-ffffff-1-ffffff-1-e-0">
      <stop offset="0" style="stop-color: rgb(255, 255, 255); stop-opacity: 1;"/>
      <stop offset="1" style="stop-color: rgb(255, 255, 255); stop-opacity: 1;"/>
    </linearGradient>
    <linearGradient x1="100%" y1="0%" x2="0%" y2="0%" id="mx-gradient-cccccc-1-ffffff-1-e-0">
      <stop offset="0" style="stop-color: rgb(255, 255, 255); stop-opacity: 1;"/>
      <stop offset="1" style="stop-color: rgb(204, 204, 204); stop-opacity: 1;"/>
    </linearGradient>
    <linearGradient x1="0%" y1="0%" x2="100%" y2="0%" id="mx-gradient-ffffff-1-cccccc-1-e-0">
      <stop offset="0" style="stop-color: rgb(255, 255, 255); stop-opacity: 1;"/>
      <stop offset="1" style="stop-color: rgb(204, 204, 204); stop-opacity: 1;"/>
    </linearGradient>
  </defs>
  <path d="M 178.857 126.907 L 339.577 126.907 C 340.483 126.907 341.217 127.641 341.217 128.547 L 341.211 282.639 C 341.176 284.278 341.206 284.278 339.584 285.261 C 339.584 285.262 270.557 326.327 270.557 326.327 C 268.12 327.854 268.288 327.885 265.735 327.875 L 252.453 327.909 C 250.131 327.886 250.323 328.002 247.686 326.475 L 178.518 285.252 C 177.218 284.278 177.228 284.278 177.212 282.637 L 177.217 128.547 C 177.217 127.641 177.951 126.907 178.857 126.907 Z" fill="url(#mx-gradient-007fff-1-0066cc-1-s-0)" stroke="none" pointer-events="all" transform="matrix(1, 0, 0, 1, -7.105427357601002e-15, 0)"/>
  <path d="M 178.857 126.907 L 339.577 126.907 C 340.483 126.907 341.217 127.641 341.217 128.547 L 341.204 282.63 C 341.204 284.271 341.228 284.278 339.584 285.26 C 339.584 285.26 270.558 326.318 270.557 326.319 C 268.129 327.89 268.21 327.886 265.735 327.876 L 252.453 327.891 C 250.01 327.899 250.204 327.902 247.686 326.471 C 247.678 326.467 178.538 285.268 178.538 285.268 C 177.223 284.278 177.216 284.285 177.216 282.635 L 177.217 128.547 C 177.217 127.641 177.951 126.907 178.857 126.907 Z" fill-opacity="0.4" fill="url(#mx-gradient-ff00ff-1-000000-1-e-0)" stroke="none" pointer-events="all" transform="matrix(1, 0, 0, 1, -7.105427357601002e-15, 0)"/>
  <path d="M 199.297 147.987 L 318.997 147.987 L 269.917 176.577 L 229.217 176.577 L 229.217 211.527 L 318.997 159.897 L 318.997 271.887 L 259.147 306.827 L 199.297 271.887 L 226.827 255.997 L 259.147 275.057 L 291.467 255.997 L 291.467 208.347 L 199.297 260.767 L 199.297 187.697 L 199.297 147.987 Z" fill="url(#mx-gradient-ffffff-1-ffffff-1-e-0)" stroke="none" pointer-events="all" transform="matrix(1, 0, 0, 1, -7.105427357601002e-15, 0)"/>
  <path d="M 199.297 147.987 L 289.417 147.987 L 319.457 147.987 L 307.437 154.757 L 206.507 154.757 L 205.297 257.377 L 199.297 260.767 L 199.297 176.177 L 199.297 147.987 Z" fill="url(#mx-gradient-cccccc-1-ffffff-1-e-0)" stroke="none" pointer-events="all" transform="matrix(1, 0, 0, 1, -7.105427357601002e-15, 0)"/>
  <path d="M 313.147 268.707 L 313.147 163.277 L 319.137 159.737 L 319.137 272.237 L 259.177 306.987 L 199.217 271.867 L 205.217 268.407 L 259.177 299.627 L 313.147 268.707 Z" fill="url(#mx-gradient-ffffff-1-cccccc-1-e-0)" stroke="none" pointer-events="all" transform="matrix(1, 0, 0, 1, -7.105427357601002e-15, 0)"/>
</svg>